<?xml version="1.0" standalone="no"?>
<!DOCTYPE svg PUBLIC "-//W3C//DTD SVG 20010904//EN"
 "http://www.w3.org/TR/2001/REC-SVG-20010904/DTD/svg10.dtd">
<svg version="1.0" xmlns="http://www.w3.org/2000/svg"
 width="162.000000pt" height="157.000000pt" viewBox="0 0 162.000000 157.000000"
 preserveAspectRatio="xMidYMid meet">

<g transform="translate(0.000000,157.000000) scale(0.100000,-0.100000)"
fill="#000000" stroke="none">
<path d="M735 1550 c-18 -8 -17 -9 8 -9 16 -1 26 3 22 9 -3 6 -7 10 -8 9 -1 0
-11 -4 -22 -9z"/>
<path d="M1286 1552 c-111 -2 -127 -5 -122 -18 3 -9 6 -18 6 -20 0 -2 4 -4 10
-4 5 0 7 7 4 15 -5 13 20 15 196 15 139 0 199 3 195 11 -4 6 -37 9 -84 7 -43
-2 -135 -4 -205 -6z"/>
<path d="M1261 1388 c-27 -57 -81 -179 -120 -272 l-72 -170 32 -75 c18 -42 35
-79 39 -83 3 -5 21 27 39 70 34 77 211 503 211 507 0 1 -20 0 -45 -2 -52 -6
-53 -4 -25 69 24 63 23 58 5 58 -10 0 -34 -38 -64 -102z"/>
<path d="M219 1413 c90 -224 152 -358 165 -361 9 -2 16 -2 16 0 0 16 -180 403
-189 406 -7 2 -4 -15 8 -45z"/>
<path d="M685 1126 c-44 -23 -87 -46 -95 -51 -8 -5 -18 -10 -22 -10 -3 0 -10
-3 -14 -7 -4 -5 56 -8 134 -8 l141 0 -26 60 c-15 33 -29 60 -32 59 -3 -1 -42
-20 -86 -43z"/>
<path d="M486 768 c69 -160 163 -385 234 -558 39 -96 75 -179 79 -183 7 -7
241 507 241 530 0 4 -28 72 -62 151 l-63 142 -232 0 -232 0 35 -82z"/>
</g>
</svg>
